<svg width="16" height="16" viewBox="0 0 16 16" fill="none" xmlns="http://www.w3.org/2000/svg">
<path d="M8 2C11.3137 2 14 4.68629 14 8C14 11.3137 11.3137 14 8 14C4.68629 14 2 11.3137 2 8C2 4.68629 4.68629 2 8 2Z" fill="#FF5555" fill-opacity="0.325"/>
<path d="M4.23483 11.2348C4.17304 11.3051 4.14135 11.4 4.14432 11.4964C4.14743 11.5929 4.18495 11.6829 4.25105 11.749C4.31715 11.8151 4.40712 11.8526 4.50361 11.8557C4.59995 11.8586 4.69491 11.827 4.76517 11.7652C4.76517 11.7652 4.76517 11.7652 4.76517 11.7652C4.8892 11.6559 5.01323 11.5466 5.13726 11.4373C7.36984 9.46984 9.60243 7.50243 11.835 5.53501C11.959 5.42571 12.0831 5.31641 12.2071 5.20711C12.4066 5.03158 12.5225 4.78774 12.5223 4.52232C12.5225 4.25731 12.4066 3.99243 12.2071 3.79289C12.0076 3.59335 11.7427 3.47748 11.4777 3.47768C11.2123 3.47748 10.9684 3.59335 10.7929 3.79289C10.7929 3.79289 10.7929 3.79289 10.7929 3.79289C10.6836 3.91693 10.5743 4.04096 10.465 4.16499C8.49757 6.39757 6.53016 8.63016 4.56274 10.8627C4.45344 10.9868 4.34414 11.1108 4.23483 11.2348Z" fill="#FF5555"/>
<path d="M6.73483 12.7348C6.67438 12.8051 6.64393 12.8999 6.64738 12.9958C6.65099 13.0918 6.6882 13.1809 6.75365 13.2464C6.81909 13.3118 6.90822 13.349 7.00423 13.3526C7.10008 13.3561 7.19495 13.3256 7.26517 13.2652C7.26517 13.2652 7.26517 13.2652 7.26517 13.2652C7.37253 13.1725 7.4799 13.0799 7.58726 12.9873C9.51985 11.3198 11.4524 9.65243 13.385 7.98501C13.4924 7.89238 13.5997 7.79974 13.7071 7.70711C13.9086 7.53358 14.0263 7.29149 14.026 7.02604C14.0263 6.76106 13.9086 6.49443 13.7071 6.29289C13.5056 6.09135 13.2389 5.97372 12.974 5.97396C12.7085 5.97372 12.4664 6.09135 12.2929 6.29289C12.2003 6.40026 12.1076 6.50762 12.015 6.61499C10.3476 8.54757 8.68016 10.4802 7.01274 12.4127C6.9201 12.5201 6.82747 12.6275 6.73483 12.7348Z" fill="#FF5555"/>
<path d="M2.73483 8.73483C2.67438 8.80505 2.64393 8.89992 2.64738 8.99577C2.65099 9.09178 2.6882 9.18091 2.75365 9.24635C2.81909 9.3118 2.90822 9.34901 3.00423 9.35262C3.10008 9.35607 3.19495 9.32562 3.26517 9.26517C3.26517 9.26517 3.26517 9.26517 3.26517 9.26517C3.37253 9.17253 3.4799 9.0799 3.58726 8.98726C5.51985 7.31984 7.45243 5.65243 9.38501 3.98501C9.49238 3.89238 9.59974 3.79974 9.70711 3.70711C9.90865 3.53358 10.0263 3.29149 10.026 3.02604C10.0263 2.76106 9.90865 2.49443 9.70711 2.29289C9.50557 2.09135 9.23894 1.97372 8.97396 1.97396C8.70851 1.97372 8.46642 2.09135 8.29289 2.29289C8.20026 2.40026 8.10762 2.50762 8.01499 2.61499C6.34757 4.54757 4.68016 6.48015 3.01274 8.41274C2.9201 8.5201 2.82747 8.62747 2.73483 8.73483Z" fill="#FF5555"/>
</svg>
